<?xml version="1.0" encoding="UTF-8" standalone="no"?>
<!DOCTYPE svg PUBLIC "-//W3C//DTD SVG 1.1//EN" "http://www.w3.org/Graphics/SVG/1.1/DTD/svg11.dtd">
<svg width="100%" height="100%" viewBox="0 0 102 91" version="1.1" xmlns="http://www.w3.org/2000/svg" xmlns:xlink="http://www.w3.org/1999/xlink" xml:space="preserve" xmlns:serif="http://www.serif.com/" style="fill-rule:evenodd;clip-rule:evenodd;stroke-linejoin:round;stroke-miterlimit:2;">
    <g transform="matrix(1,0,0,1,-0.00030567,-86.4832)">
        <g transform="matrix(1,0,0,1,-208.063,-84.1023)">
            <g transform="matrix(1,0,0,1,-1.39757,-1.23958)">
                <g transform="matrix(0.355501,-0.101623,0.101623,0.355501,135.116,164.107)">
                    <path d="M272.387,230.796C272.387,213.033 257.965,198.611 240.202,198.611L176.932,198.611C162.069,198.611 143.648,217.029 143.648,231.891L143.648,294.001C143.648,312.482 162.174,327.35 177.416,327.35C241.785,327.35 240.202,327.35 240.202,327.35C255.202,327.35 272.387,312.928 272.387,295.165L272.387,230.796Z" style="fill:rgb(80,75,54);fill-opacity:0.75;"/>
                </g>
                <g transform="matrix(0.365646,-0.104821,0.104821,0.365646,135.377,146.12)">
                    <path d="M258.428,263.831C258.428,246.068 244.006,231.646 226.243,231.646L161.874,231.646C144.111,231.646 129.689,246.068 129.689,263.831L129.689,328.2C129.689,345.963 144.111,360.385 161.874,360.385L226.243,360.385C244.006,360.385 258.428,345.963 258.428,328.2L258.428,263.831ZM199.02,255.921L198.721,255.71L181.305,262.228C175.818,267.331 165.17,277.429 164.786,277.619C164.406,277.813 157.756,290.384 154.568,296.38L154.854,297.193L153.791,319.44L153.784,319.453L153.784,319.591L153.789,319.582C154.276,334.916 165.221,335.375 170.149,335.517L170.1,335.546L229.285,331.532L229.287,331.501L229.449,331.49L229.38,331.485L229.32,331.069L233.843,271.853L233.792,271.956C233.849,270.006 233.682,268.079 233.211,266.269L233.228,266.271C231.919,260.725 227.902,257.146 221.055,256.024L221.06,256.022L199.02,255.921Z" style="fill:rgb(212,180,107);"/>
                </g>
                <g transform="matrix(0.370162,-0.106018,0.106018,0.370162,216.108,222.452)">
                    <path d="M49.971,1.629L49.651,1.403L31.024,8.374C25.156,13.832 13.768,24.632 13.357,24.835C12.951,25.043 5.838,38.488 2.428,44.9L2.735,45.77L1.598,69.564L1.59,69.578L1.59,69.725L1.595,69.715C2.116,86.116 13.823,86.607 19.093,86.758L19.04,86.79L82.34,82.496L82.342,82.464L82.516,82.452L82.442,82.446L82.378,82.002L87.215,18.668L87.16,18.778C87.221,16.693 87.043,14.631 86.539,12.696L86.558,12.698C85.158,6.766 80.861,2.939 73.539,1.739L73.544,1.736L49.971,1.629Z" style="fill:url(#_Linear1);"/>
                </g>
            </g>
            <g transform="matrix(1,0,0,1,-2.12587,-1.17448)">
                <g transform="matrix(0.421311,-0.0590292,0.0590292,0.421311,148.718,125.812)">
                    <path d="M272.387,230.796C272.387,213.033 257.965,198.611 240.202,198.611L176.932,198.611C162.069,198.611 143.648,217.029 143.648,231.891L143.648,294.001C143.648,312.482 162.174,327.35 177.416,327.35C241.785,327.35 240.202,327.35 240.202,327.35C255.202,327.35 272.387,312.928 272.387,295.165L272.387,230.796Z" style="fill:rgb(80,75,54);fill-opacity:0.75;"/>
                </g>
                <g transform="matrix(0.426824,-0.0598212,0.0598212,0.426824,152.967,107.53)">
                    <path d="M258.428,263.831C258.428,246.068 244.006,231.646 226.243,231.646L161.874,231.646C144.111,231.646 129.689,246.068 129.689,263.831L129.689,328.2C129.689,345.963 144.111,360.385 161.874,360.385L226.243,360.385C244.006,360.385 258.428,345.963 258.428,328.2L258.428,263.831ZM199.02,255.921L198.721,255.71L181.305,262.228C175.818,267.331 165.17,277.429 164.786,277.619C164.406,277.813 157.756,290.384 154.568,296.38L154.854,297.193L153.791,319.44L153.784,319.453L153.784,319.591L153.789,319.582C154.276,334.916 165.221,335.375 170.149,335.517L170.1,335.546L229.285,331.532L229.287,331.501L229.449,331.49L229.38,331.485L229.32,331.069L233.843,271.853L233.792,271.956C233.849,270.006 233.682,268.079 233.211,266.269L233.228,266.271C231.919,260.725 227.902,257.146 221.055,256.024L221.06,256.022L199.02,255.921Z" style="fill:rgb(226,198,130);"/>
                </g>
                <g transform="matrix(0.43313,-0.0612648,0.0612648,0.43313,231.279,205.715)">
                    <path d="M49.971,1.629L49.651,1.403L31.024,8.374C25.156,13.832 13.768,24.632 13.357,24.835C12.951,25.043 5.838,38.488 2.428,44.9L2.735,45.77L1.598,69.564L1.59,69.578L1.59,69.725L1.595,69.715C2.116,86.116 13.823,86.607 19.093,86.758L19.04,86.79L82.34,82.496L82.342,82.464L82.516,82.452L82.442,82.446L82.378,82.002L87.215,18.668L87.16,18.778C87.221,16.693 87.043,14.631 86.539,12.696L86.558,12.698C85.158,6.766 80.861,2.939 73.539,1.739L73.544,1.736L49.971,1.629Z" style="fill:url(#_Linear2);"/>
                </g>
            </g>
            <g transform="matrix(1,0,0,1,-1.39757,-1.23958)">
                <g transform="matrix(0.530696,0,0,0.530696,162.095,70.2506)">
                    <path d="M272.387,230.796C272.387,213.033 257.965,198.611 240.202,198.611L176.932,198.611C162.069,198.611 143.648,217.029 143.648,231.891L143.648,294.001C143.648,312.482 162.174,327.35 177.416,327.35C241.785,327.35 240.202,327.35 240.202,327.35C255.202,327.35 272.387,312.928 272.387,295.165L272.387,230.796Z" style="fill:rgb(80,75,54);fill-opacity:0.75;"/>
                </g>
                <g transform="matrix(0.548027,0,0,0.548027,168.997,44.8768)">
                    <path d="M258.428,263.831C258.428,246.068 244.006,231.646 226.243,231.646L161.874,231.646C144.111,231.646 129.689,246.068 129.689,263.831L129.689,328.2C129.689,345.963 144.111,360.385 161.874,360.385L226.243,360.385C244.006,360.385 258.428,345.963 258.428,328.2L258.428,263.831ZM199.02,255.921L198.721,255.71L181.305,262.228C175.818,267.331 165.17,277.429 164.786,277.619C164.406,277.813 157.756,290.384 154.568,296.38L154.854,297.193L153.791,319.44L153.784,319.453L153.784,319.591L153.789,319.582C154.276,334.916 165.221,335.375 170.149,335.517L170.1,335.546L229.285,331.532L229.287,331.501L229.449,331.49L229.38,331.485L229.32,331.069L233.843,271.853L233.792,271.956C233.849,270.006 233.682,268.079 233.211,266.269L233.228,266.271C231.919,260.725 227.902,257.146 221.055,256.024L221.06,256.022L199.02,255.921Z" style="fill:rgb(236,208,145);"/>
                </g>
                <g transform="matrix(0.57851,0,0,0.57851,248.986,181.192)">
                    <path d="M49.971,1.629L49.651,1.403L31.024,8.374C25.156,13.832 13.768,24.632 13.357,24.835C12.951,25.043 5.838,38.488 2.428,44.9L2.735,45.77L1.598,69.564L1.59,69.578L1.59,69.725L1.595,69.715C2.116,86.116 13.823,86.607 19.093,86.758L19.04,86.79L82.34,82.496L82.342,82.464L82.516,82.452L82.442,82.446L82.378,82.002L87.215,18.668L87.16,18.778C87.221,16.693 87.043,14.631 86.539,12.696L86.558,12.698C85.158,6.766 80.861,2.939 73.539,1.739L73.544,1.736L49.971,1.629Z" style="fill:url(#_Linear3);"/>
                </g>
                <g id="path1167" transform="matrix(1.03459,0,0,1.03459,-9.566,-6.9651)">
                    <path d="M251.179,206.992L253.966,214.897L266.075,212.181L279.9,199.332L283.802,186.94L277.659,182.602L267.214,186.51C263.924,189.571 257.538,195.627 257.307,195.741C257.08,195.857 253.091,203.397 251.179,206.992ZM260.965,192.792C268.097,185.72 277.291,181.543 280.819,185.103C284.345,188.663 280.606,197.314 273.474,204.382C266.342,211.452 257.261,215.86 253.736,212.3C250.207,208.742 253.833,199.861 260.965,192.792Z" style="fill:rgb(240,217,168);fill-rule:nonzero;stroke:rgb(251,245,233);stroke-width:0.39px;"/>
                </g>
            </g>
        </g>
    </g>
    <defs>
        <linearGradient id="_Linear1" x1="0" y1="0" x2="1" y2="0" gradientUnits="userSpaceOnUse" gradientTransform="matrix(-18.063,-31.892,31.892,-18.063,76.819,94.556)"><stop offset="0" style="stop-color:rgb(251,118,85);stop-opacity:0.9"/><stop offset="0" style="stop-color:rgb(251,118,85);stop-opacity:0.9"/><stop offset="0.41" style="stop-color:rgb(228,43,30);stop-opacity:0.9"/><stop offset="0.99" style="stop-color:rgb(153,0,0);stop-opacity:0.9"/><stop offset="1" style="stop-color:rgb(153,0,0);stop-opacity:0.9"/></linearGradient>
        <linearGradient id="_Linear2" x1="0" y1="0" x2="1" y2="0" gradientUnits="userSpaceOnUse" gradientTransform="matrix(-18.063,-31.892,31.892,-18.063,76.819,94.556)"><stop offset="0" style="stop-color:rgb(251,118,85);stop-opacity:0.9"/><stop offset="0" style="stop-color:rgb(251,118,85);stop-opacity:0.9"/><stop offset="0.41" style="stop-color:rgb(228,43,30);stop-opacity:0.9"/><stop offset="0.99" style="stop-color:rgb(153,0,0);stop-opacity:0.9"/><stop offset="1" style="stop-color:rgb(153,0,0);stop-opacity:0.9"/></linearGradient>
        <linearGradient id="_Linear3" x1="0" y1="0" x2="1" y2="0" gradientUnits="userSpaceOnUse" gradientTransform="matrix(-18.063,-31.892,31.892,-18.063,76.819,94.556)"><stop offset="0" style="stop-color:rgb(251,118,85);stop-opacity:0.9"/><stop offset="0" style="stop-color:rgb(251,118,85);stop-opacity:0.9"/><stop offset="0.41" style="stop-color:rgb(228,43,30);stop-opacity:0.9"/><stop offset="0.99" style="stop-color:rgb(153,0,0);stop-opacity:0.9"/><stop offset="1" style="stop-color:rgb(153,0,0);stop-opacity:0.9"/></linearGradient>
    </defs>
</svg>
